<?xml version="1.0" standalone="no"?><!DOCTYPE svg PUBLIC "-//W3C//DTD SVG 1.1//EN" "http://www.w3.org/Graphics/SVG/1.1/DTD/svg11.dtd"><svg t="1525581651520" class="icon" style="" viewBox="0 0 1282 1024" version="1.1" xmlns="http://www.w3.org/2000/svg" p-id="2492" xmlns:xlink="http://www.w3.org/1999/xlink" width="160.25" height="128"><defs><style type="text/css"></style></defs><path d="M893.506 438.193c-40.954-8.13-21.079-30.112-21.079-30.112s40.049-66.248-8.13-114.427c-59.622-59.623-204.463 7.528-204.463 7.528-55.406 17.164-40.651-7.829-32.822-50.288 0-50.288-17.164-135.204-164.715-84.917-147.25 50.288-274.023 227.048-274.023 227.048-87.928 117.439-76.184 208.076-76.184 208.076 21.982 200.247 234.877 255.353 400.495 268.302 174.050 13.852 409.227-59.924 480.293-211.389 71.366-151.766-58.117-211.69-99.372-219.82v0zM525.231 813.092c-172.845 7.829-312.566-78.895-312.566-194.225 0-115.331 139.721-208.076 312.566-215.906 173.146-8.13 313.169 63.235 313.169 178.567 0 115.331-140.023 223.735-313.169 231.564v0z" p-id="2493" fill="#00CBAB"></path><path d="M490.902 478.844c-174.050 20.477-153.875 183.384-153.875 183.384s-1.808 51.492 46.674 77.69c101.78 55.105 206.572 21.982 259.569-46.373 52.697-68.355 21.681-234.877-152.369-214.702v0zM446.939 707.699c-32.521 3.613-58.718-15.056-58.718-42.157s23.487-55.406 56.009-58.718c37.039-3.613 61.429 17.767 61.429 45.169 0 26.799-26.499 51.793-58.718 55.708zM549.32 620.371c-10.84 8.13-24.391 6.925-30.112-3.012-6.023-9.637-3.915-24.994 7.227-33.125 12.948-9.637 26.197-6.624 32.22 3.012 5.722 9.637 1.506 24.392-9.335 33.125z" p-id="2494" fill="#00CBAB"></path><path d="M978.122 367.428c14.153 0 26.197-10.237 28.005-23.789 0.301-0.904 0.301-1.807 0.301-3.012 21.38-190.912-156.284-158.091-156.284-158.091-15.959 0-28.607 12.648-28.607 28.607 0 15.659 12.648 28.607 28.607 28.607 127.375-28.306 99.372 99.372 99.372 99.372 0 15.659 12.948 28.306 28.607 28.306z" p-id="2495" fill="#00CBAB"></path><path d="M957.345 34.384c-61.43-14.454-124.364-2.108-142.131 1.205-1.506 0-2.709 1.506-3.915 1.808-0.602 0-0.904 0.602-0.904 0.602-17.767 5.12-30.413 21.079-30.413 40.351 0 22.584 18.369 41.556 41.556 41.556 0 0 22.283-3.312 37.641-9.035 14.755-6.323 142.131-4.517 205.367 101.48 34.629 77.69 15.056 129.483 12.648 137.614 0 0-8.13 20.175-8.13 40.049 0 22.885 18.369 37.34 41.254 37.34 19.272 0 35.232-2.709 40.049-34.93h0.301c67.753-226.145-83.11-332.441-193.322-358.037v0z" p-id="2496" fill="#00CBAB"></path></svg>